<?xml version="1.0" standalone="no"?><!DOCTYPE svg PUBLIC "-//W3C//DTD SVG 1.1//EN" "http://www.w3.org/Graphics/SVG/1.1/DTD/svg11.dtd"><svg t="1681918231245" class="icon" viewBox="0 0 1024 1024" version="1.1" xmlns="http://www.w3.org/2000/svg" p-id="3462" width="32" height="32" xmlns:xlink="http://www.w3.org/1999/xlink"><path d="M902.08 344.32a80.96 80.96 0 0 0-9.664-113.792L727.808 91.52a80.96 80.96 0 0 0-113.856 9.664L166.912 631.296l-25.856 282.56a32.064 32.064 0 0 0 40 33.792l274.112-73.216 446.912-530.112z m-130.88 55.104L447.488 783.36 257.984 623.36l323.648-383.744 189.568 159.744z m79.616-119.616c6.72 5.696 7.488 16 1.856 22.784l-40.128 47.68-189.44-159.744 40.192-47.68a16.32 16.32 0 0 1 22.72-1.92l164.8 138.88zM226.56 681.664l168.96 142.336-186.56 49.92 17.6-192.256z" fill="#ffffff" p-id="3463"></path></svg>