<?xml version="1.0" standalone="no"?><!DOCTYPE svg PUBLIC "-//W3C//DTD SVG 1.1//EN"
        "http://www.w3.org/Graphics/SVG/1.1/DTD/svg11.dtd">
<svg t="1682223739075" class="icon" viewBox="0 0 1025 1024" version="1.1" xmlns="http://www.w3.org/2000/svg" p-id="1861"
     width="32.03125" height="32">
    <path d="M558.65984819 550.35793405L558.65984866 540.69862807C558.65984866 538.12281332 558.57935424 535.627493 558.41836589 533.21266662 558.25737753 530.79784025 558.17688357 528.30251947 558.17688357 525.72670469L558.1768831 514.13553838C558.1768831 501.25646372 561.23566341 493.04605393 567.35322355 489.50430855 573.47078366 485.96256317 583.13008967 484.35267907 596.33114102 484.6746558 602.44870115 484.35267861 612.10800665 484.19169071 625.30905851 484.19169023 638.5101094 484.19169071 652.75758537 484.11119631 668.05148595 483.95020747 683.34538601 483.78921909 698.07582706 483.70872515 712.24281003 483.70872469 726.40979249 483.70872469 737.51799469 483.54773679 745.5674161 483.22575865 757.15858105 483.22576146 766.25442847 482.17933501 772.85495554 480.08648395 779.45547796 477.99363665 782.75574197 472.76151226 782.75574244 464.39011413 782.75574291 458.59452978 782.91673032 451.02807485 783.23870705 441.69074606 783.56068378 432.35341633 783.72167167 424.46498423 783.72167403 418.02544457 783.72167403 407.07823121 786.53897108 400.23622274 792.17356657 397.49941964 797.80816303 394.76261653 804.97214587 397.09695036 813.66552075 404.50241834 823.00285094 411.90788442 833.46709733 420.11829562 845.05826366 429.13364815 856.64943001 438.14900067 868.48207912 447.56682482 880.55621384 457.38711683 892.63034431 467.20741212 904.54348738 476.70573021 916.29564583 485.88206736 928.04780051 495.05840824 938.7535297 503.51030222 948.4128371 511.2377455 957.75016399 518.6432158 962.49932468 525.48522193 962.66031071 531.76377229 962.82130141 538.04231891 958.71609324 544.72334181 950.34469791 551.80682932 941.65132022 559.2123001 931.75053148 567.34221639 920.64233163 576.19657822 909.5341285 585.05094334 898.10395005 594.06629492 886.35179769 603.24263255 874.59964159 612.41897391 863.00847385 621.59531573 851.57829586 630.77165569 840.14811742 639.94799614 829.60337522 648.39988916 819.94406924 656.12733385 809.6408098 664.49873199 801.02792888 667.7989946 794.10542647 666.02812169 787.18292361 664.25724922 783.72167261 657.89820583 783.72167215 646.95099295 783.72167261 640.51145611 783.48018982 632.38154027 782.99722429 622.56124592 782.51425919 612.7409511 782.27277641 604.28905855 782.27277688 597.20556823 782.27277641 590.12207699 780.01893792 585.61440143 775.51126189 583.68254014 771.00358587 581.75067886 764.72503737 580.62375984 756.6756155 580.30178311 748.30421781 580.30178311 736.79354448 580.38227753 722.14359784 580.54326591 707.49365028 580.70425425 692.28024365 580.7847482 676.50337756 580.7847482 660.72651145 580.7847482 645.35211646 580.86524262 630.38019217 581.02623099 615.40826835 581.18721888 603.41462992 581.26771376 594.39927834 581.2677133 590.53555621 581.26771376 586.51084573 580.94573706 582.32514597 580.30178311 578.13944713 579.65782919 574.27572548 578.20893347 570.73397916 575.95509497 567.19223425 573.70125696 564.37493627 570.56198223 562.2820866 566.53727222 560.18923695 562.51256131 558.981824 557.11944904 558.65984634 550.35793499L558.65984819 550.35793405ZM70.86490797 549.39200435C61.52757823 541.98653592 56.7784185 535.14452605 56.61743059 528.86597848 56.45644363 522.58743094 60.56164899 515.90641176 68.93304713 508.82292052 77.62642201 501.41745256 87.52720796 493.28753438 98.635412 484.43317302 109.74361233 475.57880791 121.17378984 466.56345538 132.92594502 457.38711401 144.67810345 448.21077687 156.34976326 438.95394109 167.94092868 429.61661089 179.53209827 420.27928491 190.15733256 411.74689607 199.81663996 404.01945278 210.11989706 395.6480523 218.65228356 392.42828316 225.41379855 394.36014539 232.175314 396.29200809 235.55607151 402.73154588 235.55607151 413.67875829 235.55607008 420.11829421 235.79755428 428.731177 236.28051654 439.51739919 236.7634821 450.30362465 237.00496722 459.2384851 237.00496442 466.32197214 237.00496533 473.40546385 238.53435692 477.9936357 241.5931358 480.08648441 244.65191516 482.17933266 250.04503024 483.22576053 257.77247306 483.22575913 266.78782701 483.225761 278.6204747 483.14526518 293.27042228 482.98427684 307.92036938 482.82328798 323.37525875 482.6623001 339.63508998 482.50131174 355.89492163 482.3403229 371.75228217 482.25982848 387.20717108 482.25982896L422.94660262 482.25982896C426.81032472 482.25982942 430.8350352 482.4208173 435.02073451 482.74279404 439.20643381 483.06477076 443.15064989 484.11119631 446.8533841 485.88206922 450.55611831 487.65294215 453.61489814 490.38974524 456.02972499 494.092479 458.44455185 497.79521274 459.49097596 503.02733712 459.16899971 509.78885071L459.16899971 546.49421241C459.16899971 559.37328706 456.1102194 568.0666624 449.99265975 572.57433842 443.87509916 577.08201446 434.37678198 579.335852 421.49770735 579.335852 415.70212441 579.335852 405.96232354 579.41634641 392.27830755 579.57733431 378.59429064 579.73832314 364.02483794 579.81881756 348.56994855 579.81881756 333.11505965 579.81881802 318.06264138 579.89931246 303.41269428 580.06030034 288.76274624 580.22128823 277.41306221 580.14079428 269.36364082 579.81881802 257.77247399 579.81881802 249.40107538 580.94573706 244.24944589 583.19957506 239.09781641 585.45341306 236.52200168 590.76603045 236.5220012 599.13742952 236.5220012 604.93301247 236.44150679 611.93600883 236.28051842 620.14641907 236.11952959 628.3568298 236.03903613 635.68180381 236.03903613 642.1213402 236.03903564 653.06855402 233.22173814 659.91056201 227.58714307 662.64736466 221.95254806 665.38416824 214.62757451 663.21082416 205.61222243 656.12733338 196.59687037 649.04384354 186.21311651 640.91392771 174.46096136 631.73758635 162.70880569 622.56124544 150.79566405 613.06292969 138.72153167 603.24263628 126.64739981 593.42234241 114.73425393 583.92402337 102.98209829 574.74768155 91.22994218 565.57134018 80.52421254 557.11944764 70.86490747 549.3920048L70.86490797 549.39200435Z"
          p-id="1862"></path>
</svg>