<?xml version="1.0" standalone="no"?><!DOCTYPE svg PUBLIC "-//W3C//DTD SVG 1.1//EN"
        "http://www.w3.org/Graphics/SVG/1.1/DTD/svg11.dtd">
<svg t="1682223746874" class="icon" viewBox="0 0 1097 1024" version="1.1" xmlns="http://www.w3.org/2000/svg" p-id="2007"
     width="34.28125" height="32">
    <path d="M599.83322858 534.02993021C590.27511694 526.38344094 585.49606064 519.05555454 585.49606113 512.04627251 585.49606113 505.03699002 589.95651306 497.70910462 598.8774179 490.06261531 608.11692562 482.09752215 618.79015059 473.3359195 630.89709279 463.7778074 643.0040345 454.21969578 655.42957959 444.50228247 668.17372855 434.62556598 680.91787804 424.74884997 693.50272434 414.87213647 705.92827091 404.995419 718.3538175 395.11870251 729.82355044 385.87919526 740.33747323 377.27689482 751.48860476 368.0373856 760.80776183 364.45309549 768.29495242 366.52401753 775.78213853 368.59494303 779.36643261 375.52457271 779.04782673 387.31291351 779.04782921 394.32219253 779.20713091 403.08379468 779.5257323 413.59772044 779.84433719 424.11164171 780.16294108 433.03254705 780.48154348 440.36043394 780.48154497 448.64412951 782.87107335 453.90109139 787.65012768 456.13131858 792.42918647 458.36154234 799.27916629 459.47665518 808.20006863 459.47665765 817.75818026 459.47665765 830.42267987 459.39700582 846.19356304 459.2377056 861.96444969 459.07840094 878.37253961 458.91910173 895.41784331 458.75979655 912.46314301 458.60049535 929.03053465 458.44119516 945.12002318 458.28189297 961.20951074 458.12259076 974.19261424 458.20224013 984.06933024 458.5208445 988.21117827 458.20224212 992.59198083 458.44119367 997.21173445 459.23770263 1001.83148855 460.0342121 1006.05298693 461.54758069 1009.87623109 463.77780788 1013.69947773 466.00803161 1016.80586425 469.27372082 1019.19539214 473.57487103 1021.58492004 477.87602126 1022.77968426 483.84984127 1022.77968426 491.49633056 1022.77968177 495.95678546 1022.8593341 499.54107609 1023.0186373 502.24920736 1023.17793698 504.95734113 1023.25758882 507.58582109 1023.25758982 510.13464919L1023.25758982 518.73694965 1023.25759031 531.16249525C1023.25758784 545.18106176 1019.99190062 554.02231424 1013.4605222 557.68625919 1006.92914675 561.35020114 996.49487433 563.34147381 982.15770593 563.6600792 975.78563269 563.6600777 965.35136125 563.58042636 950.85489115 563.42112367 936.35842103 563.26182198 920.90614027 563.26182246 904.49804636 563.42112566 888.08995739 563.58042487 872.15976757 563.73973004 856.7074888 563.89902826 841.25520655 564.05833093 829.0686145 564.13798128 820.14770914 564.13798277 807.40355968 564.13798277 797.60649453 565.33274749 790.7565147 567.72227489 783.90653439 570.11180279 780.48154447 575.76701939 780.48154447 584.68792426 780.48154447 591.05999797 780.24259092 599.2640442 779.76468588 609.30006189 779.28678028 619.33607909 779.04782723 627.85872917 779.04782723 634.86801169 779.04782723 646.33774561 776.02109254 653.66563203 769.96762119 656.85166988 763.91415084 660.03770676 755.94905766 657.64817886 746.07234169 649.68308518 736.19562569 641.71799152 724.9648443 632.87673852 712.37999701 623.15932473 699.79514922 613.44191142 686.97134941 603.32624239 673.90859603 592.81231911 660.84584315 582.29839534 647.86274114 572.02342511 634.95928997 561.98740742 622.0558393 551.95139022 610.34715182 542.63223117 599.83322858 534.02993021L599.83322858 534.02993021ZM73.65916448 490.54052038C73.65916548 476.52195735 76.84520135 467.12314545 83.21727858 462.34409213 89.58935133 457.56503532 100.10327312 455.17550496 114.75904591 455.17550594 121.76832891 455.17550742 132.52120524 455.0958566 147.01767533 454.93655489 161.51414494 454.7772527 177.20537626 454.69759938 194.09137677 454.69760134 210.97737277 454.69759987 227.30581436 454.61794901 243.07669951 454.45864882 258.84758516 454.29934812 271.1934789 454.21969677 280.11438523 454.21969727 292.85853173 454.21969429 301.85908741 453.02493157 307.11604879 450.63540366 312.37301067 448.24587529 315.0014911 442.59065866 315.0014936 433.66975632 315.00149061 427.29767959 315.1607933 419.6511903 315.47939719 410.73028595 315.79800108 401.80938163 315.95730276 393.84428796 315.95730128 386.83500495 315.95730128 375.36527002 319.06369028 368.11703795 325.27646035 365.09029979 331.48923488 362.06356512 339.37467572 364.37344166 348.93278733 372.01993095 358.80950532 379.98502661 370.04028671 388.82627961 382.62513551 398.5436949 395.20997979 408.26110572 408.11343146 418.4564256 421.33548702 429.12965207 434.55754157 439.80287652 447.62029443 450.1574986 460.52374611 460.19351578 473.42719729 470.22953346 484.97658255 479.38939035 495.17190195 487.6730874 513.6509184 502.32885922 514.28812565 516.98463053 497.08352377 531.64040233 487.52541168 539.2868921 476.77253583 547.9688439 464.82489632 557.6862577 452.87725682 567.40367149 440.45171074 577.28038649 427.54825906 587.31640469 414.64480838 597.35242186 401.98030975 607.30878871 389.55476466 617.18550469 377.12921908 627.06222021 365.65948465 636.30172893 355.14556188 644.90402938 343.99443133 654.1435376 334.67527127 657.7278297 327.18808367 655.65690569 319.70089558 653.58598118 315.95730178 646.49704882 315.95730228 634.3901066 316.27590566 630.88546535 316.35555699 626.66396597 316.19625482 621.72560797 316.03695263 616.78724998 315.87765093 611.68959079 315.71834924 606.43262891 315.55904754 601.175668 315.39974485 596.07800782 315.24044366 591.13964983 315.08114147 586.20129183 315.00149013 581.82049075 315.00149061 577.99724562 315.0014911 569.71354903 313.48812352 564.53623852 310.46138785 562.46531398 307.43465268 560.39438997 301.46083267 559.35892747 292.53992834 559.35892698 282.98181722 559.35892846 270.15801541 559.43857882 254.06852835 559.59788149 237.97903733 559.75718123 221.17269266 559.83683404 203.64948638 559.83683307 186.1262801 559.83683206 169.16063223 559.91648439 152.75254079 560.07578609 136.34444886 560.23508828 123.04274347 560.31474015 112.8474216 560.31473764 109.02417645 560.31473815 104.80267856 560.07578659 100.18292347 559.59787954 95.56317183 559.11997593 91.34166997 557.92521024 87.51842483 556.01358742 83.69517967 554.1019656 80.50914133 551.23453062 77.96031323 547.41128697 75.41148512 543.58804331 74.13706907 537.85317485 74.13706859 530.20668605 74.13706957 525.74623465 74.05741971 522.16194354 73.89811404 519.45380777 73.73881234 516.74567599 73.6591625 514.11719604 73.65916351 511.56836694L73.65916351 502.96606649 73.65916448 490.54052038Z"
          p-id="2008"></path>
</svg>